<?xml version="1.0" encoding="UTF-8"?><svg xmlns="http://www.w3.org/2000/svg" viewBox="0 0 712.18 712.18"><defs><style>.d{fill:none;stroke:#f9ba88;stroke-miterlimit:10;stroke-width:20px;}.e{fill:#285403;}</style></defs><g id="a"/><g id="b"><g id="c"><g><circle class="e" cx="356.09" cy="356.09" r="356.09"/><path class="d" d="M223.4,405.69s-30.4-14.4-32-84.8c-1.6-70.4,41.6-116.8,112-145.6,70.4-28.8,102.4-59.2,102.4-59.2,48,51.2,33.6,112,33.6,112,8.24-29.75,131.2-84.8,131.2-84.8,51.2,102.4-62.16,188.38-62.16,188.38,23.1-20.68,71.76,21.22,71.76,21.22-11.2,57.6-68.8,65.6-83.2,73.6-14.4,8-147.2,9.6-147.2,9.6-97.6,27.2-123.2,160-123.2,160l-79.21-87.75c-15.19-15.51-39.74-57.34,13.31-26.27l57.6,32"/></g></g></g></svg>