<svg width="139" height="177" viewBox="0 0 139 177" fill="none" xmlns="http://www.w3.org/2000/svg">
<path d="M41.5 118.5C37.9 132.1 55.3333 142.5 64.5 146C94.5 133.5 97.5 128.5 94.5 120.5C93.693 120.276 92.7539 120.021 91.7202 119.749C87.218 118.563 84 114.54 84 109.885V101.173H53V107.664C53 112.75 49.1609 116.927 44.1704 117.909C43.2257 118.096 42.3305 118.292 41.5 118.5Z" fill="#FF9393"/>
<mask id="mask0_5_220" style="mask-type:alpha" maskUnits="userSpaceOnUse" x="41" y="101" width="55" height="45">
<path d="M41.5 118.5C37.9 132.1 55.3333 142.5 64.5 146C94.5 133.5 97.5 128.5 94.5 120.5C93.693 120.276 92.7539 120.021 91.7202 119.749C87.218 118.563 84 114.54 84 109.885V101.173H53V107.664C53 112.75 49.1609 116.927 44.1704 117.909C43.2257 118.096 42.3305 118.292 41.5 118.5Z" fill="#FF9393"/>
</mask>
<g mask="url(#mask0_5_220)">
<path d="M54 98H84H94V117.5H84C75.5744 117.5 67.3892 114.692 60.7384 109.519L53 103.5V98H54Z" fill="#D74B4B"/>
</g>
<path d="M30 38.1731C30 18.8431 45.67 3.17306 65 3.17306H76C95.33 3.17306 111 18.8431 111 38.1731V67.7241C111 79.8191 104.755 91.0569 94.4848 97.4447L76.9513 108.35C72.7031 110.992 67.3158 110.962 63.0973 108.273L46.1855 97.4913C36.1035 91.064 30 79.9348 30 67.9784V38.1731Z" fill="#FF9393"/>
<path d="M73 63.1731L67.5648 72.6846C66.422 74.6846 67.8661 77.1731 70.1695 77.1731H73" stroke="black"/>
<path d="M45.0396 50.7561C44.9387 50.319 45.1501 49.8696 45.5512 49.6686L48.4551 48.2134C50.8192 47.0287 53.427 46.4119 56.0712 46.4119L59.6825 46.4119C60.1362 46.4119 60.5299 46.725 60.6319 47.1671V47.1671C60.7729 47.7777 60.3092 48.3606 59.6825 48.3606L56.5211 48.3606C53.8769 48.3606 51.2691 48.9775 48.905 50.1621L46.422 51.4064C45.8594 51.6883 45.1812 51.3693 45.0396 50.7561V50.7561Z" fill="black"/>
<path d="M97.8678 51.3601C97.9688 50.9229 97.7574 50.4735 97.3563 50.2725L94.4524 48.8174C92.0883 47.6327 89.4805 47.0159 86.8362 47.0159L83.225 47.0159C82.7713 47.0159 82.3776 47.329 82.2756 47.771V47.771C82.1346 48.3816 82.5983 48.9646 83.225 48.9646L86.3863 48.9646C89.0306 48.9646 91.6384 49.5814 94.0025 50.7661L96.4854 52.0103C97.0481 52.2923 97.7263 51.9733 97.8678 51.3601V51.3601Z" fill="black"/>
<circle cx="55.5" cy="56.6731" r="2.5" fill="black"/>
<circle cx="86.5" cy="56.6731" r="2.5" fill="black"/>
<circle cx="114" cy="61.1731" r="11" fill="#FF9393"/>
<circle cx="28" cy="61.1731" r="11" fill="#FF9393"/>
<path d="M33 55.1731C28.5 53.6731 23 55.6731 22 59.6731" stroke="black" stroke-linecap="round"/>
<path d="M110 55.6711C114.5 54.1711 120 56.1711 121 60.1711" stroke="black" stroke-linecap="round"/>
<path fill-rule="evenodd" clip-rule="evenodd" d="M84 85.1731H58C59.0043 86.9873 60.3751 88.6209 62 89.9319L82 87.6473C82.6796 86.9069 83.3475 86.0838 84 85.1731Z" fill="#FF5959"/>
<path d="M65.5 92.0575C70.1391 94.0619 75.8418 93.6118 81 88.6701C81.3358 88.3484 81.6693 88.0077 82 87.6473L62 89.9319C63.0676 90.7932 64.2449 91.5151 65.5 92.0575Z" fill="#FF0000"/>
<path d="M115.602 50.1559C105.137 50.657 106.184 54.1645 104.614 58.173C104.614 52.4943 104.139 43.4516 98.6976 34.2319C82.4595 36.7373 70.9674 38.2405 76.1996 31.7266C58.9336 38.7416 52.1319 36.2362 58.9336 28.2191C56.6664 29.7223 53.4422 36.5369 40.8852 37.7394C35.2308 38.2809 35.1224 36.4668 39.9455 32.4817C36.469 35.0955 29.2765 38.8838 28.3852 34.2319C27.4191 29.1899 30.9635 11.4473 50.8852 4.29287C101.113 -13.7456 122.927 29.6121 115.602 50.1559Z" fill="black"/>
<ellipse cx="103.664" cy="9.97113" rx="2" ry="6.5" transform="rotate(15.5 103.664 9.97113)" fill="black"/>
<ellipse cx="104.794" cy="14.5361" rx="1.5" ry="5" transform="rotate(50 104.794 14.5361)" fill="black"/>
<path d="M43.5 117.5C16.3809 129.146 5.78432 133.87 0.689963 171.422C0.288907 174.378 2.61221 177 5.59554 177H25.5H132.598C135.687 177 138.04 174.209 137.49 171.168C131.255 136.678 123.72 124.716 91 119.5C97.7407 127.124 87.6667 137.876 66 145.5C58.1358 142.111 43.5 131.325 43.5 117.5Z" fill="#FFE8E8"/>
<mask id="mask1_5_220" style="mask-type:alpha" maskUnits="userSpaceOnUse" x="0" y="117" width="138" height="60">
<path d="M43.5 117.5C16.3809 129.146 5.78432 133.87 0.689963 171.422C0.288907 174.378 2.61221 177 5.59554 177H25.5H132.598C135.687 177 138.04 174.209 137.49 171.168C131.255 136.678 123.72 124.716 91 119.5C97.7407 127.124 87.6667 137.876 66 145.5C58.1358 142.111 43.5 131.325 43.5 117.5Z" fill="#FFE8E8"/>
</mask>
<g mask="url(#mask1_5_220)">
<path d="M109.11 153.529C110.662 148.824 117.319 148.824 118.872 153.529C123.775 153.529 125.876 159.82 121.888 162.673C123.429 167.344 117.991 171.186 113.991 168.324C109.99 171.186 104.552 167.344 106.093 162.673C102.105 159.82 104.206 153.529 109.11 153.529Z" fill="#FFC6C6"/>
<circle cx="113.882" cy="160.541" r="2.63517" fill="#FFE8E8"/>
<path d="M108.11 124.529C109.662 119.824 116.319 119.824 117.872 124.529C122.775 124.529 124.876 130.82 120.888 133.673C122.429 138.344 116.991 142.186 112.991 139.324C108.99 142.186 103.552 138.344 105.093 133.673C101.105 130.82 103.206 124.529 108.11 124.529Z" fill="#FFC6C6"/>
<circle cx="112.882" cy="131.541" r="2.63517" fill="#FFE8E8"/>
<path d="M79.1096 164.529C80.6621 159.824 87.319 159.824 88.8715 164.529C93.775 164.529 95.8759 170.82 91.8881 173.673C93.4294 178.344 87.9911 182.186 83.9905 179.324C79.9899 182.186 74.5517 178.344 76.093 173.673C72.1052 170.82 74.2061 164.529 79.1096 164.529Z" fill="#FFC6C6"/>
<circle cx="83.8819" cy="171.541" r="2.63517" fill="#FFE8E8"/>
<path d="M48.1096 152.529C49.6621 147.824 56.319 147.824 57.8715 152.529C62.775 152.529 64.8759 158.82 60.8881 161.673C62.4294 166.344 56.9911 170.186 52.9905 167.324C48.9899 170.186 43.5517 166.344 45.093 161.673C41.1052 158.82 43.2061 152.529 48.1096 152.529Z" fill="#FFC6C6"/>
<circle cx="52.8819" cy="159.541" r="2.63517" fill="#FFE8E8"/>
<path d="M7.10958 166.529C8.66214 161.824 15.319 161.824 16.8715 166.529C21.775 166.529 23.8759 172.82 19.8881 175.673C21.4294 180.344 15.9911 184.186 11.9905 181.324C7.98995 184.186 2.55174 180.344 4.09298 175.673C0.105198 172.82 2.20609 166.529 7.10958 166.529Z" fill="#FFC6C6"/>
<circle cx="11.8819" cy="173.541" r="2.63517" fill="#FFE8E8"/>
<path d="M20.1096 124.529C21.6621 119.824 28.319 119.824 29.8715 124.529C34.775 124.529 36.8759 130.82 32.8881 133.673C34.4294 138.344 28.9911 142.186 24.9905 139.324C20.9899 142.186 15.5517 138.344 17.093 133.673C13.1052 130.82 15.2061 124.529 20.1096 124.529Z" fill="#FFC6C6"/>
<circle cx="24.8819" cy="131.541" r="2.63517" fill="#FFE8E8"/>
</g>
</svg>
