<svg width="20" height="20" viewBox="0 0 20 20" fill="none" xmlns="http://www.w3.org/2000/svg">
<path d="M7 3C7 4.65685 5.65685 6 4 6C2.34315 6 1 4.65685 1 3C1 1.34315 2.34315 0 4 0C5.65685 0 7 1.34315 7 3Z" fill="#C4C4C4"/>
<path d="M16 6C17.6569 6 19 4.65685 19 3C19 1.34315 17.6569 0 16 0C14.3431 0 13 1.34315 13 3C13 4.65685 14.3431 6 16 6Z" fill="#C4C4C4"/>
<path d="M12.2308 11.9831C12.7825 9.07895 14.2617 7 16 7C18.2091 7 20 10.3579 20 14.5H13.6967C13.3148 13.4705 12.8137 12.6081 12.2308 11.9831Z" fill="#C4C4C4"/>
<path d="M7.76919 11.9831C7.21754 9.07895 5.73825 7 4 7C1.79086 7 0 10.3579 0 14.5H6.30327C6.68521 13.4705 7.18634 12.6081 7.76919 11.9831Z" fill="#C4C4C4"/>
<path d="M13 8C13 9.65685 11.6569 11 10 11C8.34315 11 7 9.65685 7 8C7 6.34315 8.34315 5 10 5C11.6569 5 13 6.34315 13 8Z" fill="#C4C4C4"/>
<path d="M10 12C7.79086 12 6 15.3579 6 19.5H14C14 15.3579 12.2091 12 10 12Z" fill="#C4C4C4"/>
</svg>
