<svg width="206" height="191" viewBox="0 0 206 191" fill="none" xmlns="http://www.w3.org/2000/svg">
<circle cx="101" cy="108" r="83" fill="#9FEF9F"/>
<mask id="mask0_11_204" style="mask-type:alpha" maskUnits="userSpaceOnUse" x="18" y="25" width="166" height="166">
<circle cx="101" cy="108" r="83" fill="#4dc94d"/>
</mask>
<g mask="url(#mask0_11_204)">
<path d="M61.5 117C49.5 99.5 46 104 15 117L25 192L112 195.5C118.167 192.333 111 196.218 111 180.5C111 177.5 119 165 83 148.5C47 132 73.5 134.5 61.5 117Z" fill="#4dc94d"/>
<path d="M90.0671 64.3789C93.0667 64.3266 105.704 72.1072 121.574 35.8247C125.612 26.5924 128.49 21.4277 130.823 18.6557C132.178 17.0455 133.268 12.508 131.759 11.0412C131.243 10.5397 130.51 10.3298 129.807 10.4821L78.2926 21.637C76.9818 21.9208 76.0187 23.0402 75.9335 24.3786L73.9338 55.8183C73.7265 59.0784 82.6927 64.9972 85.9385 64.6283C87.5031 64.4505 88.9394 64.3789 90.0671 64.3789Z" fill="#4dc94d"/>
<path d="M148 96C157 89.5 169 103.5 186 89L193 127L163.5 167.5C161.5 167 156.7 164.8 153.5 160C149.5 154 158.5 142.5 157.5 133.5C156.5 124.5 134 125.5 132.5 119C131 112.5 139 102.5 148 96Z" fill="#4dc94d"/>
</g>
<circle cx="79" cy="92" r="6" fill="#296636"/>
<circle cx="123" cy="92" r="6" fill="#296636"/>
<path d="M77.3678 118.468C75.4818 118.905 74.331 120.85 75.1487 122.604C76.9225 126.41 79.7317 129.784 83.3472 132.406C87.9872 135.771 93.7116 137.721 99.6827 137.972C105.654 138.223 111.558 136.762 116.532 133.801C120.404 131.496 123.554 128.377 125.72 124.741C126.716 123.069 125.748 121.008 123.896 120.409V120.409C122.225 119.868 120.445 120.731 119.515 122.221C117.883 124.832 115.574 127.075 112.76 128.75C108.994 130.991 104.524 132.098 100.003 131.908C95.4816 131.718 91.1474 130.241 87.6341 127.693C85.0382 125.81 82.9912 123.416 81.6412 120.716C80.8404 119.115 79.1124 118.065 77.3678 118.468V118.468Z" fill="#296636"/>
<path d="M190.5 126.5C184.9 133.7 174.5 125.833 170 121" stroke="black" stroke-width="2" stroke-linecap="round" stroke-linejoin="round" stroke-dasharray="4 4"/>
<path d="M8.50002 77.5C5.50002 96.5 9.00002 143 35.5 146.5" stroke="black" stroke-width="2" stroke-linecap="round" stroke-linejoin="round" stroke-dasharray="4 4"/>
<path d="M149 8C130 7.5 104.5 15 106 32.5" stroke="black" stroke-width="2" stroke-linecap="round" stroke-linejoin="round" stroke-dasharray="4 4"/>
<circle cx="157" cy="9" r="9" fill="#00b100"/>
<path d="M153 9.95238L155.667 12.2381L161 5" stroke="white" stroke-width="2" stroke-linecap="round" stroke-linejoin="round"/>
<circle cx="9" cy="69" r="9" fill="#00b100"/>
<path d="M5 69.9524L7.66667 72.2381L13 65" stroke="white" stroke-width="2" stroke-linecap="round" stroke-linejoin="round"/>
<circle cx="197" cy="126" r="9" fill="#00b100"/>
<path d="M193 126.952L195.667 129.238L201 122" stroke="white" stroke-width="2" stroke-linecap="round" stroke-linejoin="round"/>
</svg>
