<svg width="138" height="196" viewBox="0 0 138 196" fill="none" xmlns="http://www.w3.org/2000/svg">
<path d="M82.8924 113.172H57.7605V124.066C57.7605 125.167 57.1436 126.165 56.1459 126.887C53.9931 128.446 51.1769 129.119 49.3005 131.001L43.184 137.139L38.1577 176.552L71.8344 182.725L98.4742 167.837L96.4637 138.228L90.3714 130.979C88.7918 129.099 86.3381 128.171 84.4435 126.609C83.4713 125.808 82.8924 124.76 82.8924 123.631V113.172Z" fill="#FF9393"/>
<mask id="mask0_10_115" style="mask-type:alpha" maskUnits="userSpaceOnUse" x="38" y="113" width="61" height="70">
<path d="M82.8924 113.172H57.7605V124.066C57.7605 125.167 57.1436 126.165 56.1459 126.887C53.9931 128.446 51.1769 129.119 49.3005 131.001L43.184 137.139L38.1577 176.552L71.8344 182.725L98.4742 167.837L96.4637 138.228L90.3714 130.979C88.7918 129.099 86.3381 128.171 84.4435 126.609C83.4713 125.808 82.8924 124.76 82.8924 123.631V113.172Z" fill="#FF9393"/>
</mask>
<g mask="url(#mask0_10_115)">
<circle cx="54.5" cy="134.5" r="1.5" fill="#FFE8E8"/>
<circle cx="52.5" cy="130.5" r="1.5" fill="#FFE8E8"/>
<circle cx="56.5" cy="138.5" r="1.5" fill="#FFE8E8"/>
<circle cx="59.5" cy="141.5" r="1.5" fill="#FFE8E8"/>
<circle cx="62.5" cy="144.5" r="1.5" fill="#FFE8E8"/>
<circle cx="65.5" cy="147.5" r="1.5" fill="#FFE8E8"/>
<circle cx="69.5" cy="148.5" r="1.5" fill="#FFE8E8"/>
<circle cx="73.5" cy="147.5" r="1.5" fill="#FFE8E8"/>
<circle cx="76.5" cy="144.5" r="1.5" fill="#FFE8E8"/>
<circle cx="79.5" cy="141.5" r="1.5" fill="#FFE8E8"/>
<circle cx="81.5" cy="137.5" r="1.5" fill="#FFE8E8"/>
<circle cx="83.5" cy="133.5" r="1.5" fill="#FFE8E8"/>
<circle cx="85.5" cy="129.5" r="1.5" fill="#FFE8E8"/>
<path d="M82.7574 126.971L91.9399 113.898L57.7606 115.574L62.3037 119.819C67.1034 124.303 74.4143 126.971 82.7574 126.971Z" fill="#D74B4B"/>
<path d="M91.9399 113.898L82.7574 126.971H91.9399V113.898Z" fill="#D74B4B"/>
</g>
<ellipse cx="26.1584" cy="74.7165" rx="10.1584" ry="9.1588" fill="#FF9393"/>
<path d="M20.8119 71.8243C22.5228 69.1249 25.4456 69.0927 26.6931 69.4141" stroke="black"/>
<ellipse cx="24.0198" cy="83.3933" rx="2.67327" ry="2.41021" fill="#FF0000"/>
<ellipse rx="10.1584" ry="9.1588" transform="matrix(-1 0 0 1 113.842 74.7165)" fill="#FF9393"/>
<path d="M119.188 71.8243C117.477 69.1249 114.554 69.0927 113.307 69.4141" stroke="black"/>
<ellipse rx="2.67327" ry="2.41021" transform="matrix(-1 0 0 1 115.98 83.3933)" fill="#FF0000"/>
<path d="M58.7705 24.8514C65.4387 20.8323 73.7832 20.8323 80.4514 24.8514L103.439 38.7065C109.744 42.5066 113.598 49.3306 113.598 56.6922V64.5532C113.598 85.2195 102.777 104.377 85.0769 115.045V115.045C75.5635 120.779 63.6584 120.779 54.145 115.045V115.045C36.4451 104.377 25.6237 85.2195 25.6237 64.5532V56.6922C25.6237 49.3306 29.4784 42.5066 35.7833 38.7065L58.7705 24.8514Z" fill="#FF9393"/>
<path d="M44.8713 63.6296C49.1485 60.1589 55.5643 58.9698 58.2376 58.8092" stroke="black" stroke-width="1.5"/>
<path d="M94.594 63.6296C90.3168 60.1589 83.9009 58.9698 81.2277 58.8092" stroke="black" stroke-width="1.5"/>
<ellipse cx="55.5643" cy="70.3782" rx="2.13861" ry="1.92817" fill="black"/>
<ellipse cx="84.4355" cy="70.3782" rx="2.13861" ry="1.92817" fill="black"/>
<path d="M72.6732 75.1986L67.038 84.0898C65.7721 86.0872 67.2072 88.6958 69.572 88.6958H72.6732" stroke="black"/>
<path d="M50.891 93.0342C46.6138 96.1192 49.1089 102.032 50.891 104.603" stroke="black"/>
<path d="M89.7426 93.0342C94.0198 96.1192 91.5247 102.032 89.7426 104.603" stroke="black"/>
<path d="M59.8911 100.265C71.4396 102.964 78.6039 99.14 80.7425 96.8905" stroke="black"/>
<ellipse cx="57.7029" cy="18.3176" rx="20.3168" ry="18.3176" fill="#D74B4B"/>
<path d="M25.6237 55.6513C42.198 55.1693 76.7366 50.9273 82.297 37.8158C87.6435 40.3866 98.7643 50.8309 113.307 50.8309C106.891 14.1957 73.7425 16.4452 57.7029 20.4622C48.0792 20.9443 28.1901 28.6569 25.6237 55.6513Z" fill="#D74B4B"/>
<path d="M54.8864 128C31.557 128 4.16052 143.324 0.428651 185.44C-0.0588144 190.941 4.47715 195.444 10 195.444H55.4091C53.7176 188.037 51.6398 174.626 51.4921 160.425C51.3812 149.757 51.8368 137.347 54.8864 128Z" fill="#FF5959"/>
<path d="M127.038 195.444C132.922 195.444 137.571 190.38 136.689 184.561C131.516 150.444 116.981 126.514 85.7119 128.865C86.6457 137.14 85.5551 146.155 85.7119 154.372C86.0466 171.914 84.9897 187.789 84.1591 195.444H127.038Z" fill="#FF5959"/>
<path d="M55.4091 195.444H84.1591C84.9897 187.789 86.0466 171.914 85.7119 154.372L67.9545 178.583L51.4921 160.425C51.6398 174.626 53.7176 188.037 55.4091 195.444Z" fill="#FFC6C6"/>
</svg>
