<svg width="20" height="19" viewBox="0 0 20 19" fill="none" xmlns="http://www.w3.org/2000/svg">
<path d="M6.925 16.225L8.65 17.8C9.03333 18.1667 9.48333 18.35 10 18.35C10.5167 18.35 10.9667 18.1667 11.35 17.8L13.05 16.25C14.85 14.6333 16.4583 13.025 17.875 11.425C19.2917 9.825 20 8.06667 20 6.15C20 4.58333 19.475 3.275 18.425 2.225C17.375 1.175 16.0667 0.650002 14.5 0.650002C13.6167 0.650002 12.7833 0.837335 12 1.212C11.2167 1.58733 10.55 2.1 10 2.75C9.45 2.1 8.78333 1.58733 8 1.212C7.21667 0.837335 6.38333 0.650002 5.5 0.650002C3.93333 0.650002 2.625 1.175 1.575 2.225C0.525 3.275 0 4.58333 0 6.15C0 8.06667 0.712667 9.82067 2.138 11.412C3.56267 13.004 5.15833 14.6083 6.925 16.225Z" fill="#D9D9D9"/>
</svg>
