<svg width="138" height="184" viewBox="0 0 138 184" fill="none" xmlns="http://www.w3.org/2000/svg">
<path d="M67.1656 0C37.8448 0 14.0756 27.2307 14.0756 60.8214V108.453C14.0756 114.528 19.0004 119.453 25.0756 119.453H109.256C115.331 119.453 120.256 114.528 120.256 108.453V60.8214C120.256 27.2307 96.4864 0 67.1656 0Z" fill="black"/>
<path d="M78.9634 101.705H53.8931V110.825C53.8931 119.376 48.1808 126.874 39.9365 129.143L35.1458 130.462L45.4689 157.007L69.0645 171.017L90.4479 161.432L94.1347 130.462L91.8437 129.683C84.1423 127.063 78.9634 119.83 78.9634 111.695V101.705Z" fill="#FF9393"/>
<mask id="mask0_5_224" style="mask-type:alpha" maskUnits="userSpaceOnUse" x="35" y="101" width="60" height="71">
<path d="M78.9634 101.705H53.8931V110.825C53.8931 119.376 48.1808 126.874 39.9365 129.143L35.1458 130.462L45.4689 157.007L69.0645 171.017L90.4479 161.432L94.1347 130.462L91.8437 129.683C84.1423 127.063 78.9634 119.83 78.9634 111.695V101.705Z" fill="#FF9393"/>
</mask>
<g mask="url(#mask0_5_224)">
<path d="M78.9633 107.655L85 125.351H84.6844C73.0318 125.351 61.894 120.55 53.8931 112.079V107.655H78.9633Z" fill="#D74B4B"/>
</g>
<path d="M59.2423 8.32249C63.5032 5.13652 69.3532 5.13653 73.6141 8.32249L100.567 28.4757C103.597 30.7412 105.381 34.3029 105.381 38.0862V72.2938C105.381 83.6436 100.029 94.3288 90.939 101.125L79.0036 110.05C71.547 115.625 61.3094 115.625 53.8528 110.05L41.9174 101.125C32.8276 94.3288 27.4752 83.6436 27.4752 72.2938V38.0862C27.4752 34.3029 29.2593 30.7412 32.2893 28.4757L59.2423 8.32249Z" fill="#FF9393"/>
<circle cx="24.3986" cy="63.4131" r="7.37361" fill="#FF9393"/>
<path d="M106.983 61.201C94.9395 53.09 69.2302 33.6237 62.7414 23.5956C57.3341 23.5956 51.2386 25.0703 46.5195 30.9692C41.8003 36.8681 29.5601 73.9819 25.8733 88.4834L23.6613 30.9692L67.1656 0.737366L106.983 30.9692V61.201Z" fill="black"/>
<path d="M78.226 49.4032C83.535 48.8133 89.2864 51.1237 91.4985 52.3527" stroke="black"/>
<path d="M57.5799 49.4032C52.2709 48.8133 46.5194 51.1237 44.3074 52.3527" stroke="black"/>
<circle cx="53.1557" cy="58.2515" r="2.21208" fill="black"/>
<circle cx="81.1754" cy="58.2515" r="2.21208" fill="black"/>
<path d="M70.115 60.4636L60.882 76.6213C59.7392 78.6213 61.1833 81.1097 63.4868 81.1097H70.115" stroke="black"/>
<path d="M95.1853 55.3021C95.1853 62.2251 89.5731 67.8372 82.6502 67.8372C76.2261 67.8372 70.9307 63.0048 70.2008 56.7768C70.1442 56.2931 70.115 55.801 70.115 55.3021C70.115 54.8032 70.1442 54.3111 70.2008 53.8274C70.9307 47.5994 76.2261 42.767 82.6502 42.767C89.5731 42.767 95.1853 48.3791 95.1853 55.3021ZM72.622 55.3021C72.622 60.8405 77.1118 65.3302 82.6502 65.3302C88.1885 65.3302 92.6783 60.8405 92.6783 55.3021C92.6783 49.7637 88.1885 45.274 82.6502 45.274C77.1118 45.274 72.622 49.7637 72.622 55.3021Z" fill="white"/>
<path d="M64.2161 55.3021C64.2161 55.801 64.187 56.2931 64.1303 56.7768C63.4004 63.0048 58.105 67.8372 51.681 67.8372C44.758 67.8372 39.1458 62.2251 39.1458 55.3021C39.1458 48.3791 44.758 42.767 51.681 42.767C58.105 42.767 63.4004 47.5994 64.1303 53.8274C64.187 54.3111 64.2161 54.8032 64.2161 55.3021ZM41.6529 55.3021C41.6529 60.8405 46.1426 65.3302 51.681 65.3302C57.2194 65.3302 61.7091 60.8405 61.7091 55.3021C61.7091 49.7637 57.2194 45.274 51.681 45.274C46.1426 45.274 41.6529 49.7637 41.6529 55.3021Z" fill="white"/>
<path d="M64.1303 53.8274C64.187 54.3111 64.2161 54.8032 64.2161 55.3021C64.2161 55.801 64.187 56.2931 64.1303 56.7768H70.2008C70.1442 56.2931 70.115 55.801 70.115 55.3021C70.115 54.8032 70.1442 54.3111 70.2008 53.8274H64.1303Z" fill="white"/>
<path d="M19.9744 61.201C21.7441 58.8414 24.6444 58.7431 25.8733 58.9889" stroke="black"/>
<path d="M82.6502 87.746C79.7007 96.5943 70.8524 97.3317 64.2161 97.3317" stroke="black"/>
<path d="M134.651 162.732C132.279 147.986 124.922 133.898 110.386 130.462C104.103 128.977 96.4712 128.037 87.4985 128.25C85.1389 140.638 80.6164 145.701 78.6501 146.684L79.283 163.644L80.0258 183.552H126.263C132.42 183.552 137.114 178.043 136.136 171.964L134.651 162.732Z" fill="#FF5959"/>
<path d="M38.8326 128.25C29.1626 128.25 21.9188 129.976 16.7227 132.214C8.73257 135.657 5.74056 144.462 4.47649 153.07L1.6819 172.099C0.79542 178.136 5.47453 183.552 11.5758 183.552H49.661L54.0439 158.482L57.2667 140.048L38.8326 128.25Z" fill="#FF5959"/>
<path d="M68.3271 166.593L54.0439 158.482L49.661 183.552H80.0258L79.283 163.644L68.3271 166.593Z" fill="#FFC6C6"/>
</svg>
