<svg width="20" height="20" viewBox="0 0 20 20" fill="none" xmlns="http://www.w3.org/2000/svg">
<path fill-rule="evenodd" clip-rule="evenodd" d="M8.41028 0H11.4103C11.9626 0 12.4103 0.447715 12.4103 1V2.21959C12.4103 2.64341 12.6804 3.01524 13.0649 3.19371C13.4731 3.38324 13.8614 3.60841 14.2258 3.86524C14.5724 4.10946 15.0297 4.15758 15.3968 3.9456L16.4545 3.33493C16.9328 3.05879 17.5444 3.22266 17.8206 3.70096L19.3206 6.29903C19.5967 6.77732 19.4328 7.38891 18.9545 7.66506L17.8969 8.27568C17.5302 8.48738 17.3432 8.90666 17.3806 9.32839C17.4003 9.54964 17.4103 9.77365 17.4103 10C17.4103 10.2264 17.4003 10.4504 17.3806 10.6716C17.3432 11.0934 17.5302 11.5127 17.8969 11.7243L18.9545 12.3349C19.4328 12.6111 19.5966 13.2227 19.3205 13.701L17.8205 16.299C17.5444 16.7773 16.9328 16.9412 16.4545 16.6651L15.3968 16.0544C15.0296 15.8424 14.5724 15.8906 14.2258 16.1348C13.8614 16.3916 13.4731 16.6168 13.0649 16.8063C12.6805 16.9848 12.4103 17.3566 12.4103 17.7804V19C12.4103 19.5523 11.9626 20 11.4103 20H8.41028C7.85799 20 7.41028 19.5523 7.41028 19V17.7804C7.41028 17.3566 7.14011 16.9848 6.7557 16.8063C6.34747 16.6168 5.95914 16.3916 5.59473 16.1348C5.24819 15.8905 4.79091 15.8424 4.42375 16.0544L3.36607 16.6651C2.88778 16.9412 2.27619 16.7773 2.00005 16.299L0.500049 13.701C0.223907 13.2227 0.387782 12.6111 0.866074 12.3349L1.92366 11.7243C2.29033 11.5126 2.47737 11.0934 2.43994 10.6716C2.42031 10.4504 2.41028 10.2264 2.41028 10C2.41028 9.77365 2.42031 9.54965 2.43994 9.3284C2.47736 8.90667 2.29032 8.48739 1.92366 8.27569L0.866026 7.66507C0.387734 7.38893 0.223858 6.77734 0.5 6.29904L2 3.70097C2.27614 3.22268 2.88773 3.0588 3.36603 3.33494L4.42373 3.94561C4.79089 4.15759 5.24817 4.10947 5.59471 3.86524C5.95913 3.60841 6.34746 3.38324 6.7557 3.19371C7.14011 3.01524 7.41028 2.6434 7.41028 2.21959V1C7.41028 0.447715 7.85799 0 8.41028 0ZM9.91028 14C12.1194 14 13.9103 12.2091 13.9103 10C13.9103 7.79086 12.1194 6 9.91028 6C7.70114 6 5.91028 7.79086 5.91028 10C5.91028 12.2091 7.70114 14 9.91028 14Z" fill="#C4C4C4"/>
</svg>
